# xmcd
#
# Track frame offsets:
#	150
#	14851
#	35625
#	50999
#	67348
#	89924
#	107697
#	124272
#	139346
#	160575
#
# Disc length: 2379 seconds
# Revision: 0
# Processed by: cddbd v1.5.2PL0 Copyright (c) Steve Scherf et al.
# Submitted via: dBpowerAMP V12.0
#
DISCID=a109490a
DTITLE=Hidden Manna - Rain Manna Rain
DYEAR=2000
DGENRE=Gospel
TTITLE0=Someday
TTITLE1=Special Kind of Love
TTITLE2=Without Jesus
TTITLE3=Let Him Hear Your Cry
TTITLE4=There Is Time
TTITLE5=Sweet Lord
TTITLE6=I Can Do All Things
TTITLE7=Turn My Life Around
TTITLE8=No Regrets
TTITLE9=Noah
EXTD=
EXTT0=
EXTT1=
EXTT2=
EXTT3=
EXTT4=
EXTT5=
EXTT6=
EXTT7=
EXTT8=
EXTT9=
PLAYORDER=
